<svg xmlns="http://www.w3.org/2000/svg" width="30.727" height="54.042" baseProfile="basic" viewBox="0 0 30.727 54.042" id="fb">
  <path fill="#2B388F" d="M30.727,7.47c0-4.125-3.345-7.47-7.47-7.47H7.469C3.345,0,0,3.345,0,7.47v44.505h30.727V7.47z"></path>
  <path fill="#FFF" d="M22.213,12.801v5.213h-2.837c-0.843,0-1.38,0.229-1.648,0.689c-0.191,0.307-0.269,0.844-0.269,1.572v2.376
		h4.83l-0.575,5.25h-4.255v15.141h-6.247V27.902H8.146v-5.25h3.066v-3.144c0-3.219,1.111-5.289,3.296-6.171
		c1.073-0.421,1.993-0.536,2.951-0.536H22.213z"></path>
</svg>
